<?xml version="1.0" encoding="UTF-8"?>
<svg width="32px" height="32px" viewBox="0 0 32 32" version="1.1" xmlns="http://www.w3.org/2000/svg" xmlns:xlink="http://www.w3.org/1999/xlink">
    <!-- Generator: Sketch 63.1 (92452) - https://sketch.com -->
    <title>💟icons-category/cpu</title>
    <desc>Created with Sketch.</desc>
    <g id="💟icons-category/cpu" stroke="none" stroke-width="1" fill="none" fill-rule="evenodd">
        <path d="M32,24 L32,25.5004795 C32,25.9171995 31.7381597,26.2713395 31.2157577,26.5624201 C30.6943785,26.8546995 30.0661153,27 29.3330137,27 L29.3330137,27 L2.6669863,27 C1.93362899,27 1.30536578,26.8546995 0.782963762,26.5624201 C0.260817452,26.2713395 0,25.9171995 0,25.5004795 L0,25.5004795 L0,24 L32,24 Z M19.4479067,25 L13.9501758,25 C13.5836956,25 13.4001918,25.16805 13.4001918,25.5012772 C13.4001918,25.8321106 13.5836956,26.0006394 13.9501758,26.0006394 L13.9501758,26.0006394 L19.4479067,26.0006394 C19.814387,26.0006394 19.9978908,25.8340257 20,25.5012772 C20,25.16805 19.814387,25 19.4479067,25 L19.4479067,25 Z M26.0461049,4 C26.8583836,4 27.553651,4.2900872 28.1324739,4.871685 C28.7112968,5.45328279 29,6.15159869 29,6.96891013 L29,6.96891013 L29,20.0308052 C29,20.8469779 28.7112968,21.5467172 28.1324739,22.1280303 C27.553651,22.7096281 26.8583836,23 26.0461049,23 L26.0461049,23 L5.95361179,23 C5.14133313,23 4.44634898,22.7096281 3.86752607,22.1280303 C3.28870316,21.5467172 3,20.8469779 3,20.0308052 L3,20.0308052 L3,6.96891013 C3,6.15159869 3.28870316,5.45328279 3.86752607,4.871685 C4.44634898,4.2900872 5.14133313,4 5.95361179,4 L5.95361179,4 Z" id="Combined-Shape" fill="#0D6EFD"></path>
    </g>
</svg>