<svg class="tikicon" xmlns="http://www.w3.org/2000/svg" width="64" height="28" viewBox="0 0 64 28">
                        <g fill="none" fill-rule="evenodd">
                        <rect width="64" height="28" fill="#FFF" rx="14"></rect>
                        <g>
                            <g fill="#69D629">
                            <path d="M6.448 5.68c-.186-.181-.417-.277-.668-.277-.254 0-.484.097-.667.28-.183.183-.28.415-.28.669v3.731L1.717 5.757c-.15-.207-.362-.338-.614-.379-.255-.04-.503.023-.737.187-.18.126-.389.364-.364.786v6.689c0 .262.097.497.279.68.182.183.415.28.673.28.259 0 .492-.1.676-.29.18-.186.275-.418.275-.67V9.276l3.072 4.274c.022.037.051.073.092.115.19.22.432.335.699.335.26 0 .494-.096.68-.276.189-.184.289-.42.289-.684V6.352c0-.256-.1-.489-.289-.673M14.573 9.033c-.19-.179-.42-.27-.685-.27h-2.253c-.263 0-.5.095-.683.274-.186.182-.285.418-.285.684 0 .263.1.503.287.691.187.19.423.29.68.29h1.298v1.045c-.397.201-.81.303-1.23.303-.705 0-1.298-.24-1.81-.732-.509-.489-.756-1.061-.756-1.751s.246-1.264.75-1.752c.51-.493 1.072-.732 1.72-.732.662 0 1.214.18 1.686.547.21.167.462.237.727.204.266-.033.49-.162.647-.371.155-.207.22-.457.187-.722-.033-.269-.163-.495-.369-.648-.802-.637-1.738-.96-2.781-.96-1.237 0-2.307.437-3.181 1.297-.876.862-1.32 1.922-1.32 3.148 0 1.227.444 2.283 1.32 3.138.874.852 1.944 1.284 3.18 1.284 1.028 0 1.96-.323 2.758-.95.16-.115.271-.26.332-.43l.007-.023c.045-.108.068-.225.068-.348V9.726c0-.27-.101-.51-.294-.693M21.103 7.815c.446.502.663 1.075.663 1.752 0 .676-.218 1.249-.667 1.75-.441.494-.958.733-1.58.733-.624 0-1.143-.236-1.588-.723-.451-.494-.67-1.07-.67-1.76 0-.691.217-1.267.666-1.762.44-.485.962-.722 1.592-.722.63 0 1.147.24 1.584.732m1.383-1.35c-.809-.884-1.809-1.332-2.973-1.332-1.163 0-2.163.442-2.971 1.312-.803.865-1.21 1.915-1.21 3.122 0 1.206.407 2.256 1.21 3.12.808.871 1.816 1.313 2.994 1.313.555 0 1.097-.12 1.61-.354.512-.234.957-.56 1.323-.971.813-.865 1.226-1.907 1.226-3.097s-.407-2.238-1.209-3.114M30.84 5.68c-.187-.181-.418-.277-.67-.277-.253 0-.483.097-.666.28-.183.184-.279.415-.279.669v3.731L26.11 5.757c-.15-.207-.362-.338-.615-.379-.254-.04-.502.023-.737.187-.18.126-.388.364-.363.786v6.689c0 .262.096.497.279.68.182.183.415.28.672.28.26 0 .493-.1.677-.29.18-.186.275-.418.275-.67V9.276l3.071 4.274c.022.037.051.073.093.115.19.22.431.335.698.335.26 0 .495-.096.68-.277.19-.183.29-.42.29-.683V6.352c0-.256-.1-.489-.29-.673" transform="translate(6 7) translate(21.372)"></path>
                            </g>
                            <path fill="#1BA8FF" d="M15.364 5.133c.47 0 .914.356.914.882 0 .318-.197.576-.605.98L13.34 9.273l2.854 2.95c.296.295.518.564.518.93 0 .578-.457.847-.963.847-.358 0-.593-.208-.939-.576l-3.2-3.429v3.123c0 .478-.37.882-.925.882-.532 0-.927-.343-.927-.882V6.04c0-.502.37-.907.927-.907.53 0 .925.343.925.907v2.645l3.04-3.209c.135-.147.37-.343.715-.343zm-9.978 0c.53 0 .84.42.84.853 0 .42-.248.852-.84.852H4.04v6.2c0 .617-.395.962-.927.962s-.927-.345-.927-.963v-6.2H.84c-.594 0-.84-.431-.84-.851 0-.432.309-.853.84-.853h4.546zm2.509 0c.532 0 .927.343.927.956v6.956c0 .612-.395.955-.927.955-.531 0-.926-.343-.926-.955V6.09c0-.613.395-.956.926-.956zm10.686 0c.532 0 .926.343.926.956v6.956c0 .612-.394.955-.926.955-.531 0-.926-.343-.926-.955V6.09c0-.613.395-.956.926-.956zM7.782 0C9.002 0 9.99.992 9.99 2.217c0 1.223-.988 2.216-2.207 2.216-1.218 0-2.207-.993-2.207-2.216C5.575.992 6.565 0 7.782 0zm10.686 0c1.219 0 2.207.992 2.207 2.217 0 1.223-.988 2.216-2.207 2.216-1.218 0-2.207-.993-2.207-2.216 0-1.225.99-2.217 2.207-2.217zM9.405 1.888H6.158c-.042.15-.066.304-.066.465 0 .936.757 1.696 1.69 1.696.934 0 1.69-.76 1.69-1.696 0-.161-.024-.316-.067-.465zm10.686 0h-3.247c-.042.15-.066.304-.066.465 0 .936.757 1.696 1.69 1.696.934 0 1.69-.76 1.69-1.696 0-.161-.024-.316-.067-.465z" transform="translate(6 7)"></path>
                        </g>
                        </g>
                    </svg>