<svg class="tikicon" xmlns="http://www.w3.org/2000/svg" width="62" height="28" viewBox="0 0 62 28">
                    <g fill="none" fill-rule="evenodd">
                        <path fill="#FFF" d="M14 0h34c7.732 0 14 6.268 14 14s-6.268 14-14 14H14C6.268 28 0 21.732 0 14S6.268 0 14 0z"></path>
                        <g>
                            <path fill="#0D5CB6" fill-rule="nonzero" d="M24.433 4.8c1.053 0 1.983.303 2.79.91.162.13.258.298.285.499.028.203-.026.39-.157.556-.13.166-.306.262-.52.288-.215.026-.402-.023-.558-.146-.509-.403-1.139-.605-1.893-.605-.75 0-1.418.264-2.002.791-.556.55-.832 1.192-.832 1.93 0 .737.281 1.364.847 1.887.568.526 1.223.788 1.97.788.75 0 1.386-.202 1.913-.607.155-.114.341-.158.554-.133.213.026.39.117.528.278.127.166.177.355.15.56-.027.207-.124.374-.288.496-.804.605-1.734.908-2.787.908-1.205 0-2.245-.41-3.114-1.228C20.45 11.152 20.01 10.16 20 9c.008-1.152.45-2.14 1.32-2.96.806-.76 1.76-1.17 2.857-1.231l.256-.008zm7.207.239h.101c.25.017.44.14.565.361l.049.102 2.613 6.714.03.105c.037.19-.001.377-.113.554-.138.217-.365.325-.669.325-.274 0-.48-.122-.605-.356l-.048-.107-.555-1.416h-2.733l-.556 1.424-.049.099c-.132.235-.34.356-.614.356-.303 0-.53-.108-.668-.325-.113-.178-.15-.364-.112-.554l.032-.115 2.615-6.716.05-.093c.06-.095.14-.174.237-.239.099-.066.205-.105.317-.116l.113-.003zm7.072-.011l.211.007c.635.045 1.184.291 1.644.738.512.497.769 1.12.769 1.861 0 .684-.27 1.272-.807 1.76l-.055.046.046.038c.371.323.595.734.67 1.231l.02.19.008.199c-.006.182.001.349.021.5l.015.092.05.02c.106.048.193.118.26.208l.06.096.048.11c.083.234.045.46-.11.661-.131.172-.313.27-.54.295l-.135.006-.135-.009c-.326-.042-.588-.233-.786-.57-.173-.35-.259-.821-.259-1.408-.014-.314-.16-.557-.448-.737-.146-.092-.301-.164-.455-.215l-.154-.043h-1.294v2.376l-.008.11c-.025.154-.098.289-.219.401-.148.139-.328.209-.533.209-.207 0-.385-.07-.53-.21-.116-.112-.187-.247-.211-.4l-.009-.118V5.748l.009-.11c.024-.153.095-.288.211-.4.116-.112.253-.18.41-.202l.12-.008h2.116zm6.27 0l.263.007c1.053.056 1.96.453 2.72 1.187.822.797 1.235 1.763 1.235 2.892 0 1.128-.413 2.094-1.236 2.891-.758.735-1.666 1.131-2.719 1.188l-.266.007h-1.4l-.112-.008c-.157-.023-.294-.09-.41-.202-.117-.112-.188-.247-.212-.4l-.009-.118V5.748l.01-.11c.023-.153.094-.288.21-.4.117-.112.254-.18.41-.202l.12-.008h1.396zm-.003 1.468h-.633v5.235h.632c.755-.007 1.394-.264 1.922-.774.527-.508.79-1.12.79-1.843 0-.723-.263-1.337-.79-1.85-.476-.461-1.04-.714-1.698-.76l-.223-.008zm-13.343 1.3l-.809 2.069h1.617l-.808-2.07zm7.073-1.3h-1.353v2.14h1.353c.313 0 .576-.104.794-.314.216-.208.322-.456.322-.75 0-.295-.106-.545-.323-.757-.186-.183-.406-.287-.662-.313l-.13-.006z" transform="translate(6 6)"></path>
                            <path fill="#1BA8FF" d="M14.525 4.831c.443 0 .864.335.864.83 0 .3-.187.542-.572.923L12.61 8.728l2.698 2.776c.28.278.49.531.49.876 0 .543-.432.796-.91.796-.339 0-.56-.196-.888-.541l-3.025-3.228v2.94c0 .45-.35.83-.875.83-.503 0-.876-.323-.876-.83V5.683c0-.472.35-.853.876-.853.502 0 .875.323.875.853v2.49l2.873-3.02c.128-.138.35-.323.677-.323zm-9.433 0c.501 0 .793.396.793.803 0 .395-.233.802-.793.802H3.819v5.834c0 .582-.373.906-.876.906s-.876-.324-.876-.906V6.436H.794C.233 6.436 0 6.029 0 5.634c0-.407.292-.803.794-.803h4.298zm2.371 0c.503 0 .877.323.877.9v6.547c0 .576-.374.898-.877.898-.501 0-.875-.322-.875-.898V5.731c0-.577.374-.9.875-.9zm10.102 0c.503 0 .877.323.877.9v6.547c0 .576-.374.898-.877.898-.501 0-.875-.322-.875-.898V5.731c0-.577.374-.9.875-.9zM7.357 0c1.152 0 2.086.934 2.086 2.086 0 1.152-.934 2.087-2.086 2.087-1.151 0-2.086-.935-2.086-2.087C5.27.934 6.206 0 7.357 0zm10.102 0c1.152 0 2.086.934 2.086 2.086 0 1.152-.934 2.087-2.086 2.087-1.151 0-2.086-.935-2.086-2.087C15.373.934 16.308 0 17.459 0zM8.89 1.776h-3.07c-.039.141-.062.287-.062.439 0 .88.716 1.596 1.598 1.596.883 0 1.597-.715 1.597-1.596 0-.152-.022-.298-.063-.439zm10.102 0h-3.07c-.039.141-.062.287-.062.439 0 .88.716 1.596 1.598 1.596.883 0 1.597-.715 1.597-1.596 0-.152-.022-.298-.063-.439z" transform="translate(6 6)"></path>
                        </g>
                    </g>
                    </svg>