<?xml version="1.0" encoding="UTF-8"?>
<svg width="55px" height="56px" viewBox="0 0 55 56" version="1.1" xmlns="http://www.w3.org/2000/svg" xmlns:xlink="http://www.w3.org/1999/xlink">
    <!-- Generator: Sketch 63.1 (92452) - https://sketch.com -->
    <title>2</title>
    <desc>Created with Sketch.</desc>
    <g id="Page-1" stroke="none" stroke-width="1" fill="none" fill-rule="evenodd">
        <g id="2" transform="translate(0.500000, 0.500000)">
            <g id="Group-40" transform="translate(0.000000, 0.475391)">
                <rect id="Rectangle-Copy-21" fill="#3167EB" x="5.5" y="0" width="48.5" height="50" rx="5"></rect>
                <g id="Group-12-Copy" transform="translate(0.000000, 5.000000)"></g>
                <g id="Group-38" transform="translate(0.000000, 3.500000)">
                    <rect id="Rectangle" fill="#F4F4F4" x="0" y="0" width="50" height="51.5" rx="5"></rect>
                    <rect id="Rectangle" fill="#3167EB" x="29.1509004" y="38.6456088" width="16.4125664" height="7.5" rx="2"></rect>
                    <rect id="Rectangle" fill="#D8D8D8" x="4" y="38.6456088" width="20" height="3.42170761" rx="1.46127402"></rect>
                    <rect id="Rectangle-Copy-20" fill="#D8D8D8" x="4" y="43.2230608" width="10" height="3.42170761" rx="1.46127402"></rect>
                    <path d="M45,1 L5,1 C3.8954305,1 2.8954305,1.44771525 2.17157288,2.17157288 C1.44771525,2.8954305 1,3.8954305 1,5 L1,33.6529512 L49,33.6529512 L49,5 C49,3.8954305 48.5522847,2.8954305 47.8284271,2.17157288 C47.1045695,1.44771525 46.1045695,1 45,1 Z" id="Rectangle" stroke="#F3F3F3" stroke-width="2" fill="#FFFFFF"></path>
                    <rect id="Rectangle" fill="#FFB531" x="13.3571836" y="5.32647558" width="24" height="24" rx="5"></rect>
                </g>
            </g>
        </g>
    </g>
</svg>