<svg width="64" height="27" fill="none" xmlns="http://www.w3.org/2000/svg"><path d="M11.366 15.582a23.213 23.213 0 0 0-1.17-1.286 34.731 34.731 0 0 1-1.198-1.285 11.934 11.934 0 0 1-.996-1.285c-.289-.433-.472-.866-.548-1.299-.058-.294.028-.67.26-1.129.23-.458.548-.948.952-1.467.405-.52.867-1.043 1.386-1.571.52-.528 1.04-1.021 1.56-1.48.52-.458 1.014-.857 1.486-1.194.472-.338 1.025-.567 1.334-.688-.848 1.471-1.762 2.813-2.416 4.024-.29.52-.563 1.039-.823 1.558-.26.52-.491.996-.693 1.428-.202.433-.366.814-.491 1.143-.125.329-.178.554-.159.675.038.277.212.558.52.844.308.285.654.55 1.04.792.442.294.933.58 1.472.857.096-.502.284-1.095.563-1.78a36.48 36.48 0 0 1 .967-2.154c.366-.753.75-1.51 1.155-2.272.404-.762.775-1.458 1.112-2.09.336-.632.616-1.177.837-1.636.221-.459.496-.766.496-.922 0-.138-.111-.41-.332-.818a5.635 5.635 0 0 0-.91-1.207C16.385.942 15.774.6 15.264.314a2.38 2.38 0 0 0-1.631-.272c-.405.069-.953.294-1.646.675-.693.38-1.434.86-2.224 1.44A26.22 26.22 0 0 0 7.41 4.118a20.51 20.51 0 0 0-2.05 2.194c-.587.736-1.03 1.459-1.328 2.168-.299.71-.351 1.342-.159 1.896.173.519.423 1 .75 1.44.328.442.689.854 1.084 1.234.394.381.803.745 1.227 1.09.423.347.803.693 1.14 1.04.337.346.621.692.852 1.038.231.347.356.71.375 1.09.02.312-.082.693-.303 1.143-.221.45-.515.93-.88 1.441a19.05 19.05 0 0 1-1.227 1.532c-.453.511-.896.97-1.329 1.376-.433.407-.833.745-1.198 1.013-.366.269-.645.411-.837.428-.135-.103-.164-.324-.087-.662.077-.337.226-.73.448-1.181.22-.45.495-.939.823-1.467a29.111 29.111 0 0 1 2.078-2.935c.347-.423.655-.765.924-1.025l-3.118-2.155c-.385.207-.765.519-1.14.934-.376.416-.732.88-1.069 1.39a23.836 23.836 0 0 0-1.732 3.129c-.222.484-.39.908-.505 1.272-.116.363-.164.606-.145.727.077.675.284 1.307.621 1.895a6.466 6.466 0 0 0 1.184 1.52 6.02 6.02 0 0 0 1.4.999c.481.242.905.346 1.27.312.27-.018.645-.14 1.127-.364a12.83 12.83 0 0 0 1.588-.909c.577-.38 1.17-.835 1.775-1.363a13.325 13.325 0 0 0 1.675-1.753 9.76 9.76 0 0 0 1.27-2.077 6.754 6.754 0 0 0 .592-2.31 2.787 2.787 0 0 0-.288-1.338 6.21 6.21 0 0 0-.852-1.298zm51.802 2.155c-.02-.069-.106-.142-.26-.22a4.125 4.125 0 0 0-.49-.208 8.65 8.65 0 0 0-.492-.156 2.282 2.282 0 0 0-.26-.065c-.019 0-.125.134-.317.403l-.736 1.025c-.299.416-.617.87-.953 1.363a69.62 69.62 0 0 1-1.82 2.545c-.24.32-.399.515-.476.584-.038.035.03-.169.203-.61.173-.442.418-1.008.736-1.7.317-.693.673-1.468 1.068-2.325a57.313 57.313 0 0 1 2.383-4.622c.364-.631.673-1.077.923-1.337.058-.052-.077-.151-.404-.298a22.405 22.405 0 0 0-1.097-.455c-.501-.19-1.06-.39-1.675-.597-.154.052-.375.32-.664.805-.289.485-.617 1.1-.982 1.843.039-.328.048-.618.029-.87-.02-.25-.077-.419-.173-.506-.289-.277-.718-.506-1.285-.688a5.271 5.271 0 0 0-1.603-.272c-.5.017-.996.255-1.487.713-.49.46-.972 1.048-1.443 1.766a18.82 18.82 0 0 0-1.314 2.376c-.161.345-.311.684-.455 1.02a2.905 2.905 0 0 0-.137.162 23.51 23.51 0 0 0-.548.727c-.222.303-.472.649-.751 1.038-.28.39-.563.784-.852 1.182-.674.952-1.425 2.017-2.252 3.193-.308-.138-.52-.385-.635-.74-.116-.354-.154-.8-.116-1.337.327-.45.756-1.03 1.285-1.74.53-.71 1.107-1.501 1.733-2.376.625-.873 1.275-1.8 1.949-2.778a62.849 62.849 0 0 0 1.92-2.96 41.208 41.208 0 0 0 1.645-2.96c.491-.978.881-1.89 1.17-2.74.058-.19.058-.44 0-.752a2.609 2.609 0 0 0-.375-.922 2.839 2.839 0 0 0-.766-.792 2.24 2.24 0 0 0-1.14-.39c-.366-.016-.785.16-1.256.533-.472.372-.977.883-1.516 1.532s-1.088 1.406-1.646 2.272a52.128 52.128 0 0 0-3.176 5.725 60.12 60.12 0 0 0-1.299 2.921c-.156.38-.297.745-.43 1.102-.046.025-.128.11-.248.262a23.19 23.19 0 0 0-.549.727c-.221.303-.472.649-.75 1.038l-.852 1.182c-.674.952-1.425 2.017-2.253 3.193-.308-.138-.52-.385-.635-.74-.115-.354-.154-.8-.115-1.337.327-.45.755-1.03 1.285-1.74a152.84 152.84 0 0 0 1.732-2.376c.625-.873 1.275-1.8 1.949-2.778a62.69 62.69 0 0 0 1.92-2.96 41.21 41.21 0 0 0 1.646-2.96c.49-.978.88-1.89 1.17-2.74.057-.19.057-.44 0-.752a2.608 2.608 0 0 0-.376-.922 2.839 2.839 0 0 0-.765-.792 2.24 2.24 0 0 0-1.14-.39c-.367-.016-.785.16-1.257.533-.471.372-.977.883-1.515 1.532a23.237 23.237 0 0 0-1.646 2.272 48.905 48.905 0 0 0-1.646 2.752c-.539.97-1.05 1.96-1.53 2.973a60.023 60.023 0 0 0-1.3 2.921 33.8 33.8 0 0 0-.273.684 33.307 33.307 0 0 1-1.271 1.718 60.93 60.93 0 0 1-2.786 3.285c-.443.485-.852.9-1.227 1.246a8.107 8.107 0 0 1-.953.78c-.26.172-.438.233-.534.18-.193-.293-.294-.665-.304-1.116-.01-.45.044-.951.16-1.506.461-.242 1.043-.605 1.746-1.09.703-.485 1.4-1.034 2.093-1.649a19.692 19.692 0 0 0 1.906-1.934c.577-.675.982-1.325 1.213-1.948.134-.363.11-.783-.072-1.26a4.558 4.558 0 0 0-.78-1.31 4.282 4.282 0 0 0-1.14-.961c-.424-.242-.809-.303-1.156-.182-.905.312-1.79.874-2.656 1.688a14.363 14.363 0 0 0-2.295 2.791c-.32.505-.607 1.022-.862 1.55-.035.028-.137.16-.308.398l-.736 1.025c-.299.416-.616.87-.953 1.364-.337.493-.664.956-.982 1.389-.317.433-.596.81-.837 1.13-.24.32-.4.514-.476.583-.039.035.033-.168.216-.61.183-.441.438-1.016.765-1.726.308-.796.621-1.571.939-2.324a53.93 53.93 0 0 1 .924-2.078c.298-.631.587-1.19.866-1.674.279-.485.544-.848.794-1.091.077-.086-.01-.234-.26-.441a8.987 8.987 0 0 0-2.093-1.233c-.395-.165-.708-.247-.939-.247-.192 0-.534.233-1.025.7-.49.468-1.04 1.057-1.645 1.766a44.766 44.766 0 0 0-1.848 2.324c-.626.84-1.16 1.64-1.603 2.402.289-.848.602-1.718.939-2.61a36.61 36.61 0 0 1 1.169-2.739c.443-.934.943-1.895 1.502-2.882a51.182 51.182 0 0 1 1.905-3.09c.058-.052-.077-.156-.404-.311a15.723 15.723 0 0 0-1.097-.468 30.432 30.432 0 0 0-1.675-.571 71.463 71.463 0 0 0-2.772 4.817 52.456 52.456 0 0 0-2.122 4.57 37.918 37.918 0 0 0-1.502 4.466 31.111 31.111 0 0 0-.851 4.504c-.02.104.12.239.418.403.299.165.63.334.997.506.423.191.904.39 1.443.598l.231-.91c.327-.622.722-1.423 1.184-2.401.462-.978.991-1.995 1.588-3.05a34.153 34.153 0 0 1 1.964-3.078c.712-.995 1.491-1.83 2.338-2.505a9.273 9.273 0 0 0-.577.895c-.25.425-.52.922-.808 1.493-.29.572-.583 1.19-.881 1.857a29.774 29.774 0 0 0-.794 1.947c-.231.632-.41 1.22-.534 1.766-.126.545-.159.991-.101 1.337.057.416.235.775.534 1.078.298.303.625.558.981.766.356.208.698.36 1.026.454.327.096.548.134.663.117.097-.017.318-.216.665-.597.346-.38.74-.861 1.183-1.441.437-.572.897-1.186 1.38-1.842.002.064.003.13.006.193.02.398.082.818.188 1.26.106.44.245.852.419 1.233.173.38.385.71.635.986.25.277.539.442.866.494.462.086.948.026 1.458-.182a8.299 8.299 0 0 0 1.574-.87 12.805 12.805 0 0 0 1.602-1.324c.53-.51 1.035-1.043 1.516-1.597.245-.276.49-.563.733-.857a6.016 6.016 0 0 0 .162 1.61c.154.623.394 1.164.722 1.623a3.4 3.4 0 0 0 1.212 1.064c.481.252 1.011.36 1.589.325.134 0 .375-.19.721-.571.347-.38.746-.857 1.199-1.428a49.68 49.68 0 0 0 1.386-1.844l.315-.44c.01.442.06.866.16 1.271a4.7 4.7 0 0 0 .723 1.623 3.4 3.4 0 0 0 1.212 1.064 2.97 2.97 0 0 0 1.588.325c.135 0 .376-.19.722-.571.347-.38.746-.857 1.199-1.428.318-.402.64-.826.968-1.271l-.001.05c-.02.675.043 1.22.188 1.636.144.416.317.74.52.974.201.233.403.39.606.467.202.078.36.108.476.091.173-.017.433-.164.78-.441.346-.277.726-.623 1.14-1.039a32.71 32.71 0 0 0 1.3-1.39c.452-.51.88-1.007 1.284-1.492-.134.45-.235.853-.303 1.207-.067.355-.091.628-.072.818.038.398.183.753.433 1.065.25.311.53.567.837.766.308.199.611.346.91.441.298.095.505.134.62.117.097-.018.313-.216.65-.597.337-.38.727-.861 1.17-1.441.442-.58.91-1.203 1.4-1.87a69.76 69.76 0 0 0 1.343-1.882c.404-.588.736-1.086.996-1.493.259-.407.379-.637.36-.689zm-15.852-3.57a49.666 49.666 0 0 1 1.964-3.661 32.676 32.676 0 0 1 1.949-2.947c.625-.831 1.16-1.367 1.602-1.61-.096.312-.298.779-.606 1.402a70.839 70.839 0 0 1-1.097 2.116c-.424.788-.89 1.61-1.4 2.467a99.301 99.301 0 0 1-1.517 2.467 60.86 60.86 0 0 1-1.4 2.116c-.433.623-.794 1.09-1.083 1.402a36.558 36.558 0 0 1 1.588-3.752zm-7.304 0a49.628 49.628 0 0 1 1.963-3.661 32.654 32.654 0 0 1 1.949-2.947c.625-.831 1.16-1.367 1.602-1.61-.096.312-.298.779-.606 1.402a70.839 70.839 0 0 1-1.097 2.116c-.424.788-.89 1.61-1.4 2.467-.51.857-1.016 1.68-1.516 2.467a63.888 63.888 0 0 1-1.4 2.116c-.434.623-.795 1.09-1.084 1.402a36.558 36.558 0 0 1 1.589-3.752zm-9.86 3.492c.413-.848.846-1.618 1.299-2.31.452-.693.9-1.264 1.342-1.714.443-.45.828-.684 1.155-.701-.02.536-.197 1.134-.534 1.791a15.6 15.6 0 0 1-1.212 1.974 21.41 21.41 0 0 1-1.53 1.895 26.63 26.63 0 0 1-1.517 1.558c.25-.813.582-1.644.996-2.493zm26.808-3.012c-.058.33-.14.689-.245 1.078-.106.39-.207.775-.304 1.156l-.606 1.532c-.115.173-.289.406-.52.7a323.049 323.049 0 0 0-1.617 2.064 23.86 23.86 0 0 1-1.544 1.806c-.202.207-.342.32-.419.337-.096.017-.063-.23.101-.74.163-.51.4-1.156.708-1.934.307-.78.668-1.619 1.082-2.52.414-.9.823-1.721 1.228-2.466.404-.744.788-1.346 1.154-1.805.366-.458.655-.627.867-.506.115.07.178.22.187.454a4.05 4.05 0 0 1-.072.844z" fill="#fff"/></svg>